<svg width="339" height="49" viewBox="0 0 339 49" fill="none" xmlns="http://www.w3.org/2000/svg">
<path d="M0.09375 48V1.45454H12.7301V37.8182H31.5483V48H0.09375ZM79.9347 24.7273C79.9347 29.9091 78.9271 34.2803 76.9119 37.8409C74.8968 41.3864 72.1771 44.0758 68.7528 45.9091C65.3286 47.7273 61.5104 48.6364 57.2983 48.6364C53.0559 48.6364 49.2225 47.7197 45.7983 45.8864C42.3892 44.0379 39.6771 41.3409 37.6619 37.7955C35.6619 34.2348 34.6619 29.8788 34.6619 24.7273C34.6619 19.5455 35.6619 15.1818 37.6619 11.6364C39.6771 8.07576 42.3892 5.38636 45.7983 3.56818C49.2225 1.73485 53.0559 0.81818 57.2983 0.81818C61.5104 0.81818 65.3286 1.73485 68.7528 3.56818C72.1771 5.38636 74.8968 8.07576 76.9119 11.6364C78.9271 15.1818 79.9347 19.5455 79.9347 24.7273ZM66.9347 24.7273C66.9347 21.9394 66.5634 19.5909 65.821 17.6818C65.0938 15.7576 64.0104 14.303 62.571 13.3182C61.1468 12.3182 59.3892 11.8182 57.2983 11.8182C55.2074 11.8182 53.4422 12.3182 52.0028 13.3182C50.5786 14.303 49.4953 15.7576 48.7528 17.6818C48.0256 19.5909 47.6619 21.9394 47.6619 24.7273C47.6619 27.5152 48.0256 29.8712 48.7528 31.7955C49.4953 33.7045 50.5786 35.1591 52.0028 36.1591C53.4422 37.1439 55.2074 37.6364 57.2983 37.6364C59.3892 37.6364 61.1468 37.1439 62.571 36.1591C64.0104 35.1591 65.0938 33.7045 65.821 31.7955C66.5634 29.8712 66.9347 27.5152 66.9347 24.7273ZM116.009 16.8182C115.812 16.0152 115.501 15.3106 115.077 14.7045C114.652 14.0833 114.122 13.5606 113.486 13.1364C112.865 12.697 112.137 12.3712 111.304 12.1591C110.486 11.9318 109.584 11.8182 108.599 11.8182C106.478 11.8182 104.668 12.3258 103.168 13.3409C101.683 14.3561 100.546 15.8182 99.7585 17.7273C98.9858 19.6364 98.5994 21.9394 98.5994 24.6364C98.5994 27.3636 98.9706 29.697 99.7131 31.6364C100.455 33.5758 101.562 35.0606 103.031 36.0909C104.501 37.1212 106.327 37.6364 108.509 37.6364C110.433 37.6364 112.031 37.3561 113.304 36.7955C114.592 36.2348 115.554 35.4394 116.19 34.4091C116.827 33.3788 117.145 32.1667 117.145 30.7727L119.327 31H108.69V22H129.327V28.4545C129.327 32.697 128.425 36.3258 126.622 39.3409C124.834 42.3409 122.365 44.6439 119.213 46.25C116.077 47.8409 112.478 48.6364 108.418 48.6364C103.887 48.6364 99.91 47.6742 96.4858 45.75C93.0616 43.8258 90.3873 41.0833 88.4631 37.5227C86.554 33.9621 85.5994 29.7273 85.5994 24.8182C85.5994 20.9697 86.1828 17.5606 87.3494 14.5909C88.5313 11.6212 90.1676 9.11364 92.2585 7.06818C94.3494 5.00757 96.7661 3.45454 99.5085 2.40909C102.251 1.34848 105.19 0.81818 108.327 0.81818C111.084 0.81818 113.645 1.21212 116.009 2C118.387 2.77273 120.486 3.87879 122.304 5.31818C124.137 6.74242 125.615 8.43182 126.736 10.3864C127.857 12.3409 128.539 14.4848 128.781 16.8182H116.009ZM180.31 24.7273C180.31 29.9091 179.302 34.2803 177.287 37.8409C175.272 41.3864 172.552 44.0758 169.128 45.9091C165.704 47.7273 161.885 48.6364 157.673 48.6364C153.431 48.6364 149.598 47.7197 146.173 45.8864C142.764 44.0379 140.052 41.3409 138.037 37.7955C136.037 34.2348 135.037 29.8788 135.037 24.7273C135.037 19.5455 136.037 15.1818 138.037 11.6364C140.052 8.07576 142.764 5.38636 146.173 3.56818C149.598 1.73485 153.431 0.81818 157.673 0.81818C161.885 0.81818 165.704 1.73485 169.128 3.56818C172.552 5.38636 175.272 8.07576 177.287 11.6364C179.302 15.1818 180.31 19.5455 180.31 24.7273ZM167.31 24.7273C167.31 21.9394 166.938 19.5909 166.196 17.6818C165.469 15.7576 164.385 14.303 162.946 13.3182C161.522 12.3182 159.764 11.8182 157.673 11.8182C155.582 11.8182 153.817 12.3182 152.378 13.3182C150.954 14.303 149.87 15.7576 149.128 17.6818C148.401 19.5909 148.037 21.9394 148.037 24.7273C148.037 27.5152 148.401 29.8712 149.128 31.7955C149.87 33.7045 150.954 35.1591 152.378 36.1591C153.817 37.1439 155.582 37.6364 157.673 37.6364C159.764 37.6364 161.522 37.1439 162.946 36.1591C164.385 35.1591 165.469 33.7045 166.196 31.7955C166.938 29.8712 167.31 27.5152 167.31 24.7273ZM211.634 28.3636V48H199.088V1.45454H211.179V19.7273H211.543C212.33 17.5 213.641 15.7652 215.474 14.5227C217.308 13.2652 219.512 12.6364 222.088 12.6364C224.558 12.6364 226.702 13.197 228.52 14.3182C230.353 15.4394 231.77 16.9848 232.77 18.9545C233.785 20.9242 234.285 23.1818 234.27 25.7273V48H221.724V28.3636C221.74 26.6364 221.308 25.2803 220.429 24.2955C219.565 23.3106 218.33 22.8182 216.724 22.8182C215.709 22.8182 214.815 23.0455 214.043 23.5C213.285 23.9394 212.694 24.5758 212.27 25.4091C211.861 26.2273 211.649 27.2121 211.634 28.3636ZM257.19 48.6364C253.463 48.6364 250.251 47.9242 247.554 46.5C244.872 45.0606 242.804 43 241.349 40.3182C239.91 37.6212 239.19 34.3939 239.19 30.6364C239.19 27.0303 239.918 23.8788 241.372 21.1818C242.827 18.4848 244.88 16.3864 247.531 14.8864C250.183 13.3864 253.312 12.6364 256.918 12.6364C259.554 12.6364 261.94 13.0455 264.077 13.8636C266.213 14.6818 268.039 15.8712 269.554 17.4318C271.069 18.9773 272.236 20.8561 273.054 23.0682C273.872 25.2803 274.281 27.7727 274.281 30.5455V33.4545H243.099V26.5455H262.736C262.721 25.5455 262.463 24.6667 261.963 23.9091C261.478 23.1364 260.819 22.5379 259.986 22.1136C259.168 21.6742 258.236 21.4545 257.19 21.4545C256.175 21.4545 255.243 21.6742 254.395 22.1136C253.546 22.5379 252.865 23.1288 252.349 23.8864C251.849 24.6439 251.584 25.5303 251.554 26.5455V34C251.554 35.1212 251.789 36.1212 252.259 37C252.728 37.8788 253.402 38.5682 254.281 39.0682C255.16 39.5682 256.221 39.8182 257.463 39.8182C258.327 39.8182 259.115 39.697 259.827 39.4545C260.554 39.2121 261.175 38.8636 261.69 38.4091C262.205 37.9394 262.584 37.3788 262.827 36.7273H274.281C273.887 39.1515 272.955 41.2576 271.486 43.0455C270.016 44.8182 268.069 46.197 265.645 47.1818C263.236 48.1515 260.418 48.6364 257.19 48.6364ZM279.401 48V13.0909H291.582V19.7273H291.946C292.582 17.2727 293.59 15.4773 294.969 14.3409C296.363 13.2045 297.991 12.6364 299.855 12.6364C300.401 12.6364 300.938 12.6818 301.469 12.7727C302.014 12.8485 302.537 12.9621 303.037 13.1136V23.8182C302.416 23.6061 301.651 23.447 300.741 23.3409C299.832 23.2348 299.052 23.1818 298.401 23.1818C297.173 23.1818 296.067 23.4621 295.082 24.0227C294.113 24.5682 293.348 25.3409 292.787 26.3409C292.226 27.3258 291.946 28.4848 291.946 29.8182V48H279.401ZM321.878 48.6364C318.151 48.6364 314.938 47.9242 312.241 46.5C309.56 45.0606 307.491 43 306.037 40.3182C304.598 37.6212 303.878 34.3939 303.878 30.6364C303.878 27.0303 304.605 23.8788 306.06 21.1818C307.514 18.4848 309.567 16.3864 312.219 14.8864C314.87 13.3864 317.999 12.6364 321.605 12.6364C324.241 12.6364 326.628 13.0455 328.764 13.8636C330.901 14.6818 332.726 15.8712 334.241 17.4318C335.757 18.9773 336.923 20.8561 337.741 23.0682C338.56 25.2803 338.969 27.7727 338.969 30.5455V33.4545H307.787V26.5455H327.423C327.408 25.5455 327.151 24.6667 326.651 23.9091C326.166 23.1364 325.507 22.5379 324.673 22.1136C323.855 21.6742 322.923 21.4545 321.878 21.4545C320.863 21.4545 319.931 21.6742 319.082 22.1136C318.234 22.5379 317.552 23.1288 317.037 23.8864C316.537 24.6439 316.272 25.5303 316.241 26.5455V34C316.241 35.1212 316.476 36.1212 316.946 37C317.416 37.8788 318.09 38.5682 318.969 39.0682C319.848 39.5682 320.908 39.8182 322.151 39.8182C323.014 39.8182 323.802 39.697 324.514 39.4545C325.241 39.2121 325.863 38.8636 326.378 38.4091C326.893 37.9394 327.272 37.3788 327.514 36.7273H338.969C338.575 39.1515 337.643 41.2576 336.173 43.0455C334.704 44.8182 332.757 46.197 330.332 47.1818C327.923 48.1515 325.105 48.6364 321.878 48.6364Z" fill="white"/>
</svg>
