<svg width="48" height="47" viewBox="0 0 48 47" fill="none" xmlns="http://www.w3.org/2000/svg">
<path d="M40.8177 5.23706L26.1394 16.1388L28.8538 9.70693L40.8177 5.23706Z" fill="#E2761B" stroke="#E2761B" stroke-linecap="round" stroke-linejoin="round"/>
<path d="M6.93228 5.23706L21.4925 16.2421L18.9109 9.70693L6.93228 5.23706Z" fill="#E4761B" stroke="#E4761B" stroke-linecap="round" stroke-linejoin="round"/>
<path d="M35.5365 30.5073L31.6272 36.4967L39.9916 38.798L42.3962 30.6401L35.5365 30.5073Z" fill="#E4761B" stroke="#E4761B" stroke-linecap="round" stroke-linejoin="round"/>
<path d="M5.38333 30.6401L7.77316 38.798L16.1376 36.4967L12.2283 30.5073L5.38333 30.6401Z" fill="#E4761B" stroke="#E4761B" stroke-linecap="round" stroke-linejoin="round"/>
<path d="M15.6655 20.3874L13.3347 23.9131L21.6401 24.2819L21.345 15.3569L15.6655 20.3874Z" fill="#E4761B" stroke="#E4761B" stroke-linecap="round" stroke-linejoin="round"/>
<path d="M32.0845 20.3874L26.3312 15.2537L26.1395 24.2819L34.4301 23.9131L32.0845 20.3874Z" fill="#E4761B" stroke="#E4761B" stroke-linecap="round" stroke-linejoin="round"/>
<path d="M16.1376 36.4965L21.1238 34.0624L16.8162 30.699L16.1376 36.4965Z" fill="#E4761B" stroke="#E4761B" stroke-linecap="round" stroke-linejoin="round"/>
<path d="M26.6263 34.0624L31.6272 36.4965L30.9339 30.699L26.6263 34.0624Z" fill="#E4761B" stroke="#E4761B" stroke-linecap="round" stroke-linejoin="round"/>
<path d="M31.6272 36.4966L26.6263 34.0625L27.0246 37.3227L26.9803 38.6946L31.6272 36.4966Z" fill="#D7C1B3" stroke="#D7C1B3" stroke-linecap="round" stroke-linejoin="round"/>
<path d="M16.1376 36.4966L20.7845 38.6946L20.755 37.3227L21.1238 34.0625L16.1376 36.4966Z" fill="#D7C1B3" stroke="#D7C1B3" stroke-linecap="round" stroke-linejoin="round"/>
<path d="M20.8582 28.5451L16.6982 27.3207L19.6338 25.9783L20.8582 28.5451Z" fill="#233447" stroke="#233447" stroke-linecap="round" stroke-linejoin="round"/>
<path d="M26.8918 28.5451L28.1162 25.9783L31.0666 27.3207L26.8918 28.5451Z" fill="#233447" stroke="#233447" stroke-linecap="round" stroke-linejoin="round"/>
<path d="M16.1376 36.4967L16.8457 30.5073L12.2283 30.6401L16.1376 36.4967Z" fill="#CD6116" stroke="#CD6116" stroke-linecap="round" stroke-linejoin="round"/>
<path d="M30.9191 30.5073L31.6272 36.4967L35.5365 30.6401L30.9191 30.5073Z" fill="#CD6116" stroke="#CD6116" stroke-linecap="round" stroke-linejoin="round"/>
<path d="M34.4301 23.9131L26.1394 24.2819L26.9065 28.5452L28.131 25.9784L31.0814 27.3208L34.4301 23.9131Z" fill="#CD6116" stroke="#CD6116" stroke-linecap="round" stroke-linejoin="round"/>
<path d="M16.6982 27.3208L19.6486 25.9784L20.8582 28.5452L21.6401 24.2819L13.3347 23.9131L16.6982 27.3208Z" fill="#CD6116" stroke="#CD6116" stroke-linecap="round" stroke-linejoin="round"/>
<path d="M13.3347 23.9131L16.8162 30.699L16.6982 27.3208L13.3347 23.9131Z" fill="#E4751F" stroke="#E4751F" stroke-linecap="round" stroke-linejoin="round"/>
<path d="M31.0814 27.3208L30.9339 30.699L34.4301 23.9131L31.0814 27.3208Z" fill="#E4751F" stroke="#E4751F" stroke-linecap="round" stroke-linejoin="round"/>
<path d="M21.6401 24.282L20.8582 28.5453L21.8318 33.5758L22.0531 26.9521L21.6401 24.282Z" fill="#E4751F" stroke="#E4751F" stroke-linecap="round" stroke-linejoin="round"/>
<path d="M26.1395 24.282L25.7411 26.9373L25.9182 33.5758L26.9066 28.5453L26.1395 24.282Z" fill="#E4751F" stroke="#E4751F" stroke-linecap="round" stroke-linejoin="round"/>
<path d="M26.9065 28.5452L25.9182 33.5757L26.6262 34.0625L30.9338 30.699L31.0814 27.3208L26.9065 28.5452Z" fill="#F6851B" stroke="#F6851B" stroke-linecap="round" stroke-linejoin="round"/>
<path d="M16.6982 27.3208L16.8162 30.699L21.1238 34.0625L21.8319 33.5757L20.8582 28.5452L16.6982 27.3208Z" fill="#F6851B" stroke="#F6851B" stroke-linecap="round" stroke-linejoin="round"/>
<path d="M26.9803 38.6946L27.0246 37.3227L26.6558 36.9982H21.0943L20.755 37.3227L20.7845 38.6946L16.1376 36.4966L17.7603 37.8243L21.05 40.1108H26.7L30.0045 37.8243L31.6272 36.4966L26.9803 38.6946Z" fill="#C0AD9E" stroke="#C0AD9E" stroke-linecap="round" stroke-linejoin="round"/>
<path d="M26.6263 34.0625L25.9182 33.5757H21.8318L21.1237 34.0625L20.7549 37.3227L21.0942 36.9982H26.6558L27.0246 37.3227L26.6263 34.0625Z" fill="#161616" stroke="#161616" stroke-linecap="round" stroke-linejoin="round"/>
<path d="M41.4373 16.8469L42.6913 10.8281L40.8177 5.23706L26.6263 15.77L32.0845 20.3874L39.7999 22.6445L41.5111 20.6529L40.7735 20.1219L41.9536 19.045L41.039 18.3369L42.2192 17.437L41.4373 16.8469Z" fill="#763D16" stroke="#763D16" stroke-linecap="round" stroke-linejoin="round"/>
<path d="M5.07355 10.8281L6.32747 16.8469L5.53086 17.437L6.71102 18.3369L5.81115 19.045L6.99131 20.1219L6.25371 20.6529L7.9502 22.6445L15.6655 20.3874L21.1238 15.77L6.9323 5.23706L5.07355 10.8281Z" fill="#763D16" stroke="#763D16" stroke-linecap="round" stroke-linejoin="round"/>
<path d="M39.7998 22.6443L32.0845 20.3872L34.4301 23.9129L30.9339 30.6989L35.5365 30.6399H42.3962L39.7998 22.6443Z" fill="#F6851B" stroke="#F6851B" stroke-linecap="round" stroke-linejoin="round"/>
<path d="M15.6655 20.3872L7.95019 22.6443L5.38333 30.6399H12.2283L16.8162 30.6989L13.3347 23.9129L15.6655 20.3872Z" fill="#F6851B" stroke="#F6851B" stroke-linecap="round" stroke-linejoin="round"/>
<path d="M26.1395 24.2818L26.6263 15.7699L28.8686 9.70679H18.9109L21.1238 15.7699L21.6401 24.2818L21.8171 26.9667L21.8319 33.5756H25.9182L25.9477 26.9667L26.1395 24.2818Z" fill="#F6851B" stroke="#F6851B" stroke-linecap="round" stroke-linejoin="round"/>
</svg>
